<?xml version="1.0" encoding="utf-8"?>
<!-- Generator: Adobe Illustrator 23.0.3, SVG Export Plug-In . SVG Version: 6.00 Build 0)  -->
<svg version="1.1" id="Layer_1" xmlns="http://www.w3.org/2000/svg" xmlns:xlink="http://www.w3.org/1999/xlink" x="0px" y="0px"
	 viewBox="0 0 150 150" style="enable-background:new 0 0 150 150;" xml:space="preserve">
<style type="text/css">
	.st0{fill:#FFFFFF;}
	.st1{fill:#4696DC;}
</style>
<rect x="0.6" y="0.1" class="st0" width="149.6" height="149.6"/>
<g>
	<path class="st1" d="M74.4,68.4l4.7,4.7c1.4,1.4,3.8,1.4,5.2,0l11.8-11.8L107.9,73c1.4,1.4,3.8,1.4,5.2,0l4.7-4.7
		c1.4-1.4,1.4-3.8,0-5.2L106,51.3l11.8-11.8c1.4-1.4,1.4-3.8,0-5.2l-4.7-4.7c-1.4-1.4-3.8-1.4-5.2,0L96.1,41.4L84.3,29.6
		c-1.4-1.4-3.8-1.4-5.2,0l-4.7,4.7c-1.4,1.4-1.4,3.8,0,5.2l11.8,11.8L74.4,63.1C73,64.6,73,66.9,74.4,68.4z"/>
	<path class="st1" d="M49.1,96.1c15.6,16.4,31.4,26.3,45.2,29.4c13.8,3.1,16.6-2.3,16.6-2.3s11.5-11.2,14.8-15.1
		c3.3-3.9-0.8-6.4-0.8-6.4s-20.2-12.2-23.4-13.5c-3.1-1.3-5.1,0.8-7.2,2.8c-2.1,2-6.3,5.6-6.3,5.6c-2.3,0.3-6.6-1.6-13.8-7.2
		c-7.2-5.6-15.6-16.4-18.1-20.1c-2.5-3.6-2.5-7.6-2.5-7.6s2.8-2.5,5.8-5.6c3-3.1,2.1-6.3,2.1-6.3l-9-16.9c-5.6-11.8-6.9-9.4-6.9-9.4
		c-3.7,1.3-6.9,4.3-9,6.4c-2.1,2.1-10.4,9-12.3,13.3c-2,4.3,2,17.8,2,17.8C33,80.1,49.1,96.1,49.1,96.1z"/>
</g>
</svg>
