<?xml version="1.0" encoding="utf-8"?>
<!-- Generator: Adobe Illustrator 23.0.3, SVG Export Plug-In . SVG Version: 6.00 Build 0)  -->
<svg version="1.1" id="Layer_1" xmlns="http://www.w3.org/2000/svg" xmlns:xlink="http://www.w3.org/1999/xlink" x="0px" y="0px"
	 viewBox="0 0 150 150" style="enable-background:new 0 0 150 150;" xml:space="preserve">
<style type="text/css">
	.st0{fill:#FFFFFF;}
	.st1{fill-rule:evenodd;clip-rule:evenodd;fill:#4696DC;}
</style>
<rect x="0.2" y="0.3" class="st0" width="149.6" height="149.6"/>
<path class="st1" d="M138.4,75.3c0-15.3-12.4-27.8-27.8-27.8S82.9,60,82.9,75.3c0,4.3,1,8.3,2.8,11.9H64.3C66,83.6,67,79.6,67,75.3
	C67,60,54.6,47.5,39.3,47.5S11.5,60,11.5,75.3c0,14,10.4,25.4,23.8,27.4l0,0h79.3l0,0C128.1,100.7,138.4,89.2,138.4,75.3z
	 M27.4,75.3c0-6.6,5.3-11.9,11.9-11.9s11.9,5.3,11.9,11.9c0,6.6-5.3,11.9-11.9,11.9S27.4,81.8,27.4,75.3z M110.7,87.2
	c-6.6,0-11.9-5.3-11.9-11.9c0-6.6,5.3-11.9,11.9-11.9c6.6,0,11.9,5.3,11.9,11.9C122.6,81.8,117.2,87.2,110.7,87.2z"/>
</svg>
