<?xml version="1.0" encoding="utf-8"?>
<!-- Generator: Adobe Illustrator 16.0.2, SVG Export Plug-In . SVG Version: 6.00 Build 0)  -->
<!DOCTYPE svg PUBLIC "-//W3C//DTD SVG 1.1//EN" "http://www.w3.org/Graphics/SVG/1.1/DTD/svg11.dtd">
<svg version="1.1" id="Layer_1" xmlns="http://www.w3.org/2000/svg" xmlns:xlink="http://www.w3.org/1999/xlink" x="0px" y="0px"
	 width="512px" height="512px" viewBox="0 0 512 512" enable-background="new 0 0 512 512" xml:space="preserve">
<path d="M304.063,176c0-26.5-21.5-48-48-48s-48,21.5-48,48c0,19.656,11.844,36.5,28.75,43.938
	C224.781,327.094,181.625,428.75,112.063,512c45.625-21.344,94.813-32,144-32s98.375,10.656,144,32
	c-69.563-83.25-112.719-184.906-124.75-292.063C292.219,212.5,304.063,195.656,304.063,176z M256.063,447.969
	c-21.375,0-42.844,1.906-64,5.625c28.938-49.5,50.563-103.094,64-158.813c13.469,55.688,35.063,109.313,64,158.813
	C298.906,449.875,277.438,447.969,256.063,447.969z M320.063,224c24.75-33,20.344-79.438-10.156-107.188
	c-30.531-27.75-77.156-27.75-107.656,0C171.719,144.563,167.313,191,192.063,224c-27.5-26.188-36.25-66.438-22.156-101.688
	C184,87.125,218.125,64,256.063,64s72.063,23.125,86.156,58.313C356.313,157.563,347.531,197.813,320.063,224z M160.063,256
	C114.188,216,98,151.719,119.375,94.75C140.75,37.75,195.188,0,256.063,0c60.844,0,115.344,37.75,136.719,94.75
	C414.125,151.719,397.906,216,352.063,256c49.906-52.406,48.563-135.188-3.031-185.938s-134.344-50.75-185.969,0
	C111.5,120.813,110.125,203.594,160.063,256z"/>
</svg>
