<?xml version="1.0" encoding="utf-8"?>
<!-- Generator: Adobe Illustrator 16.0.0, SVG Export Plug-In . SVG Version: 6.00 Build 0)  -->
<!DOCTYPE svg PUBLIC "-//W3C//DTD SVG 1.1//EN" "http://www.w3.org/Graphics/SVG/1.1/DTD/svg11.dtd">
<svg version="1.1" id="Layer_1" xmlns="http://www.w3.org/2000/svg" xmlns:xlink="http://www.w3.org/1999/xlink" x="0px" y="0px"
	 width="512px" height="512px" viewBox="0 0 512 512" enable-background="new 0 0 512 512" xml:space="preserve">
<path d="M288.547,351.734c0,17.656-14.344,32-32.016,32s-32-14.344-32-32s14.328-32,32-32S288.547,334.078,288.547,351.734z
	 M301.859,267.078c-27.563-14.813-62.672-14.875-90.406-0.094c-7.797,4.156-10.766,13.844-6.609,21.625
	c4.125,7.844,13.813,10.813,21.641,6.625c18.609-9.875,41.781-9.906,60.25,0.031c2.406,1.281,5,1.906,7.563,1.906
	c5.688,0,11.219-3.063,14.094-8.438C312.578,280.953,309.641,271.266,301.859,267.078z M332.016,210.641
	c-46.094-24.719-104.672-24.719-150.734-0.063c-7.797,4.156-10.734,13.844-6.563,21.656c4.172,7.781,13.844,10.813,21.656,6.531
	c36.781-19.688,83.703-19.688,120.516,0.063c2.406,1.313,5,1.906,7.563,1.906c5.688,0,11.219-3.063,14.094-8.438
	C342.734,224.516,339.797,214.797,332.016,210.641z M362.016,154.047c-64.969-34.688-147.594-34.375-212.188,0.75
	c-7.766,4.25-10.641,13.938-6.422,21.719c2.906,5.313,8.406,8.344,14.078,8.344c2.578,0,5.203-0.625,7.625-1.938
	c55.313-30.156,126.125-30.375,181.844-0.625c7.75,4.156,17.438,1.25,21.656-6.594C372.766,167.922,369.828,158.234,362.016,154.047
	z"/>
</svg>
